<?xml version="1.0" encoding="UTF-8"?>
<svg id="SVGDoc" width="37" height="37" xmlns="http://www.w3.org/2000/svg" version="1.1" xmlns:xlink="http://www.w3.org/1999/xlink" xmlns:avocode="https://avocode.com/" viewBox="0 0 37 37"><defs><clipPath id="clip-11478938-8DE9-4AB0-867F-3DCD0EAF97AB"><path d="M0,18.5c0,10.21663 8.28333,18.5 18.5,18.5v0c10.21667,0 18.5,-8.28337 18.5,-18.5v0c0,-10.21662 -8.28333,-18.5 -18.5,-18.5v0c-10.21667,0 -18.5,8.28338 -18.5,18.5z" ></path></clipPath></defs><desc>Generated with Avocode.</desc><g><g><title>Group 16</title><g><title>Clip 2</title></g><g clip-path="url(#clip-11478938-8DE9-4AB0-867F-3DCD0EAF97AB)"><title>Fill 1</title><path d="M-10,37v0h59v0v-37v0h-59v0z" fill="#fefefe" fill-opacity="1"></path></g><g clip-path="url(#clip-11478938-8DE9-4AB0-867F-3DCD0EAF97AB)"><title>Fill 3</title><path d="M29.15479,13v0l19.84521,-12.27682v0v-1.72318v0h-1.37109v0l-22.62891,14v0z" fill="#bd1737" fill-opacity="1"></path></g><g clip-path="url(#clip-11478938-8DE9-4AB0-867F-3DCD0EAF97AB)"><title>Fill 4</title><path d="M28,24v0l21,12v0v-2.4v0l-16.80225,-9.6v0z" fill="#bd1737" fill-opacity="1"></path></g><g clip-path="url(#clip-11478938-8DE9-4AB0-867F-3DCD0EAF97AB)"><title>Fill 5</title><path d="M-11,2.45684v0l17.83398,10.54316v0h4.16602v0l-22,-13v0z" fill="#bd1737" fill-opacity="1"></path></g><g clip-path="url(#clip-11478938-8DE9-4AB0-867F-3DCD0EAF97AB)"><title>Fill 6</title><path d="M10,24v0l-20,12.77947v0v0.22053v0h3.61707v0l20.38293,-13v0z" fill="#bd1737" fill-opacity="1"></path></g><g clip-path="url(#clip-11478938-8DE9-4AB0-867F-3DCD0EAF97AB)"><title>Fill 7</title><path d="M46,0v0h-22v0v12v0z" fill="#29316f" fill-opacity="1"></path></g><g clip-path="url(#clip-11478938-8DE9-4AB0-867F-3DCD0EAF97AB)"><title>Fill 8</title><path d="M14,0v0h-21v0l21,12v0z" fill="#29316f" fill-opacity="1"></path></g><g clip-path="url(#clip-11478938-8DE9-4AB0-867F-3DCD0EAF97AB)"><title>Fill 9</title><path d="M49,13v0v-9v0l-14,9v0z" fill="#29316f" fill-opacity="1"></path></g><g clip-path="url(#clip-11478938-8DE9-4AB0-867F-3DCD0EAF97AB)"><title>Fill 10</title><path d="M49,33v0v-9v0h-14v0z" fill="#29316f" fill-opacity="1"></path></g><g clip-path="url(#clip-11478938-8DE9-4AB0-867F-3DCD0EAF97AB)"><title>Fill 11</title><path d="M-4,37v0h19v0v-12v0z" fill="#29316f" fill-opacity="1"></path></g><g clip-path="url(#clip-11478938-8DE9-4AB0-867F-3DCD0EAF97AB)"><title>Fill 12</title><path d="M24,37v0h19v0l-19,-12v0z" fill="#29316f" fill-opacity="1"></path></g><g clip-path="url(#clip-11478938-8DE9-4AB0-867F-3DCD0EAF97AB)"><title>Fill 13</title><path d="M-11,24v0v9v0l15,-9v0z" fill="#29316f" fill-opacity="1"></path></g><g clip-path="url(#clip-11478938-8DE9-4AB0-867F-3DCD0EAF97AB)"><title>Fill 14</title><path d="M-11,12v0h15v0l-15,-9v0z" fill="#29316f" fill-opacity="1"></path></g><g clip-path="url(#clip-11478938-8DE9-4AB0-867F-3DCD0EAF97AB)"><title>Fill 15</title><path d="M17,0v0v15.577v0h-27v0v6.59216v0h27v0v14.83083v0h5.48145v0v-14.83083v0h26.51855v0v-6.59216v0h-26.51855v0v-15.577v0z" fill="#bd1737" fill-opacity="1"></path></g></g></g></svg>